<svg width="64" height="79" viewBox="0 0 64 79" fill="none" xmlns="http://www.w3.org/2000/svg">
<path d="M20.4361 1.48413L17.8048 3.77778L18.6357 6.74603C20.1868 6.63809 20.4822 8.41005 20.4361 9.30952C18.3587 13.2222 15.7274 15.3809 14.0655 16.5952C12.4037 17.8095 11.2957 18.2143 10.3263 17.4048C9.35688 16.5952 7.97198 17.5397 6.86407 18.2143C5.97773 18.754 2.43239 21.5873 0.770508 22.9365C0.770508 31.0317 8.66443 51.4047 10.8803 57.6111C12.6529 62.5762 14.1117 69.0344 14.6195 71.6428L10.8803 71.1032V73.6666L30.1304 78.3889L52.0118 74.3412V71.6428L49.242 71.9127L53.8122 57.6111C60.6813 41.8524 62.9525 27.9286 63.2295 22.9365C61.5214 21.6323 57.6899 18.7809 56.028 17.8095C54.3661 16.8381 52.4734 17.8545 51.7348 18.4841C45.0873 13.1952 42.6868 8.54497 42.3175 6.88095H45.2258L45.9182 3.77778L43.2869 1.48413L30.1304 0L20.4361 1.48413Z" fill="#F0CE37"/>
</svg>
