<svg width="26" height="26" viewBox="0 0 26 26" fill="none" xmlns="http://www.w3.org/2000/svg">
<path d="M7.58268 5.41634V2.16634C7.58268 1.87902 7.69682 1.60347 7.89998 1.40031C8.10315 1.19714 8.3787 1.08301 8.66602 1.08301H17.3327C17.62 1.08301 17.8956 1.19714 18.0987 1.40031C18.3019 1.60347 18.416 1.87902 18.416 2.16634V5.41634H22.7493C23.0367 5.41634 23.3122 5.53048 23.5154 5.73364C23.7185 5.93681 23.8327 6.21236 23.8327 6.49967V21.6663C23.8327 21.9537 23.7185 22.2292 23.5154 22.4324C23.3122 22.6355 23.0367 22.7497 22.7493 22.7497H3.24935C2.96203 22.7497 2.68648 22.6355 2.48332 22.4324C2.28015 22.2292 2.16602 21.9537 2.16602 21.6663V6.49967C2.16602 6.21236 2.28015 5.93681 2.48332 5.73364C2.68648 5.53048 2.96203 5.41634 3.24935 5.41634H7.58268ZM16.2493 7.58301H9.74935V20.583H16.2493V7.58301ZM7.58268 7.58301H4.33268V20.583H7.58268V7.58301ZM18.416 7.58301V20.583H21.666V7.58301H18.416ZM9.74935 3.24967V5.41634H16.2493V3.24967H9.74935Z" fill="#FFF3CD"/>
</svg>
