<svg width="16" height="16" viewBox="0 0 16 16" fill="none" xmlns="http://www.w3.org/2000/svg">
<path fill-rule="evenodd" clip-rule="evenodd" d="M1.92259 0.744078C1.59715 0.418641 1.06951 0.418641 0.744078 0.744078C0.418641 1.06951 0.418641 1.59715 0.744078 1.92259L6.82156 8.00007L0.74419 14.0774C0.418754 14.4029 0.418753 14.9305 0.74419 15.256C1.06963 15.5814 1.59726 15.5814 1.9227 15.256L8.00007 9.17858L14.0774 15.2559C14.4028 15.5813 14.9304 15.5813 15.2559 15.2559C15.5813 14.9304 15.5813 14.4028 15.2559 14.0774L9.17858 8.00007L15.256 1.92265C15.5814 1.59722 15.5814 1.06958 15.256 0.744142C14.9306 0.418705 14.4029 0.418705 14.0775 0.744142L8.00007 6.82156L1.92259 0.744078Z" fill="#FFF3CD"/>
</svg>
