<svg width="18" height="18" viewBox="0 0 18 18" fill="none" xmlns="http://www.w3.org/2000/svg">
<path fill-rule="evenodd" clip-rule="evenodd" d="M6.94739 0.75C5.70475 0.75 4.69739 1.75736 4.69739 3V3.90791H3C1.75736 3.90791 0.75 4.91527 0.75 6.15791V15C0.75 16.2427 1.75736 17.25 3 17.25H11.0526C12.2953 17.25 13.3026 16.2426 13.3026 15V14.0921H15C16.2427 14.0921 17.25 13.0847 17.25 11.8421V3C17.25 1.75736 16.2427 0.75 15 0.75H6.94739ZM13.3026 12.5921H15C15.4142 12.5921 15.75 12.2563 15.75 11.8421V3C15.75 2.58579 15.4142 2.25 15 2.25H6.94739C6.53317 2.25 6.19739 2.58579 6.19739 3V3.90791H11.0526C12.2953 3.90791 13.3026 4.91527 13.3026 6.15791V12.5921ZM2.25 6.15791C2.25 5.74369 2.58579 5.40791 3 5.40791H11.0526C11.4668 5.40791 11.8026 5.74369 11.8026 6.15791V15C11.8026 15.4142 11.4668 15.75 11.0526 15.75H3C2.58579 15.75 2.25 15.4142 2.25 15V6.15791Z" fill="#FFF3CD"/>
</svg>
