<?xml version="1.0" encoding="utf-8"?>
<!-- Generator: Adobe Illustrator 26.2.1, SVG Export Plug-In . SVG Version: 6.00 Build 0)  -->
<svg version="1.1" id="圖層_1" xmlns="http://www.w3.org/2000/svg" xmlns:xlink="http://www.w3.org/1999/xlink" x="0px" y="0px"
	 viewBox="0 0 20 20" style="enable-background:new 0 0 20 20;" xml:space="preserve">
<style type="text/css">
	.st0{fill:#292229;}
	.st1{fill-rule:evenodd;clip-rule:evenodd;fill:#F94545;}
</style>
<circle class="st0" cx="10" cy="10" r="10"/>
<path class="st1" d="M10,20c5.5,0,10-4.5,10-10c0-5.5-4.5-10-10-10C4.5,0,0,4.5,0,10C0,15.5,4.5,20,10,20z M6.5,13.5
	c-0.3-0.3-0.3-0.9,0-1.2L8.8,10L6.5,7.7c-0.3-0.3-0.3-0.9,0-1.2s0.9-0.3,1.2,0L10,8.8l2.3-2.3c0.3-0.3,0.9-0.3,1.2,0
	c0.3,0.3,0.3,0.9,0,1.2L11.2,10l2.3,2.3c0.3,0.3,0.3,0.9,0,1.2c-0.3,0.3-0.9,0.3-1.2,0L10,11.2l-2.3,2.3C7.3,13.8,6.8,13.8,6.5,13.5
	z"/>
</svg>
