<svg width="18" height="18" viewBox="0 0 18 18" fill="none" xmlns="http://www.w3.org/2000/svg">
<path fill-rule="evenodd" clip-rule="evenodd" d="M8.46428 2.25C4.59796 2.25 1.5 5.29185 1.5 9C1.5 12.7081 4.59796 15.75 8.46428 15.75C9.90174 15.75 11.2342 15.3287 12.3409 14.6084C12.6881 14.3825 13.1527 14.4808 13.3786 14.828C13.6045 15.1751 13.5063 15.6397 13.1591 15.8657C11.8142 16.7409 10.1985 17.25 8.46428 17.25C3.80965 17.25 0 13.5761 0 9C0 4.42387 3.80965 0.75 8.46428 0.75C10.1985 0.75 11.8142 1.25913 13.1591 2.13435C13.5063 2.36028 13.6045 2.82488 13.3786 3.17205C13.1527 3.51922 12.6881 3.6175 12.3409 3.39157C11.2342 2.67132 9.90174 2.25 8.46428 2.25Z" fill="#FFF3CD"/>
<path fill-rule="evenodd" clip-rule="evenodd" d="M17.7273 9.57851C18.0468 9.31492 18.0921 8.84221 17.8285 8.5227L15.3536 5.5227C15.09 5.20318 14.6173 5.15785 14.2978 5.42144C13.9782 5.68504 13.9329 6.15775 14.1965 6.47726L16.6715 9.47726C16.9351 9.79678 17.4078 9.84211 17.7273 9.57851Z" fill="#FFF3CD"/>
<path fill-rule="evenodd" clip-rule="evenodd" d="M17.7272 8.42149C18.0467 8.68508 18.092 9.15779 17.8284 9.4773L15.3535 12.4773C15.0899 12.7968 14.6172 12.8421 14.2976 12.5786C13.9781 12.315 13.9328 11.8423 14.1964 11.5227L16.6713 8.52274C16.9349 8.20322 17.4076 8.15789 17.7272 8.42149Z" fill="#FFF3CD"/>
<path fill-rule="evenodd" clip-rule="evenodd" d="M8.25 9C8.25 8.58579 8.58579 8.25 9 8.25H17.2498C17.6641 8.25 17.9998 8.58579 17.9998 9C17.9998 9.41421 17.6641 9.75 17.2498 9.75H9C8.58579 9.75 8.25 9.41421 8.25 9Z" fill="#FFF3CD"/>
</svg>
