<svg width="26" height="26" viewBox="0 0 26 26" fill="none" xmlns="http://www.w3.org/2000/svg">
<path d="M6.37991 17.333H2.16683C1.87951 17.333 1.60396 17.2189 1.4008 17.0157C1.19763 16.8126 1.0835 16.537 1.0835 16.2497V9.7497C1.0835 9.46238 1.19763 9.18683 1.4008 8.98366C1.60396 8.7805 1.87951 8.66636 2.16683 8.66636H6.37991L12.1151 3.97336C12.1944 3.90831 12.2906 3.86713 12.3925 3.85462C12.4943 3.84212 12.5976 3.8588 12.6904 3.90273C12.7831 3.94666 12.8615 4.01602 12.9163 4.10275C12.9712 4.18948 13.0002 4.29 13.0002 4.39261V21.6068C13.0002 21.7094 12.9712 21.8099 12.9163 21.8966C12.8615 21.9834 12.7831 22.0527 12.6904 22.0967C12.5976 22.1406 12.4943 22.1573 12.3925 22.1448C12.2906 22.1323 12.1944 22.0911 12.1151 22.026L6.381 17.333H6.37991ZM22.1153 12.9997L25.946 16.8304L24.4142 18.3622L20.5835 14.5315L16.7528 18.3622L15.221 16.8304L19.0517 12.9997L15.221 9.16903L16.7528 7.6372L20.5835 11.4679L24.4142 7.6372L25.946 9.16903L22.1153 12.9997Z" fill="#FFF3CD"/>
</svg>
