<svg width="16" height="16" viewBox="0 0 16 16" fill="none" xmlns="http://www.w3.org/2000/svg">
<path fill-rule="evenodd" clip-rule="evenodd" d="M8.66661 1.33366C8.66661 0.965469 8.36813 0.666992 7.99994 0.666992C7.63175 0.666992 7.33327 0.965469 7.33327 1.33366V7.33368H1.33335C0.965164 7.33368 0.666687 7.63216 0.666687 8.00035C0.666687 8.36854 0.965164 8.66701 1.33335 8.66701H7.33327V14.667C7.33327 15.0352 7.63175 15.3337 7.99994 15.3337C8.36813 15.3337 8.66661 15.0352 8.66661 14.667V8.66701H14.6667C15.0349 8.66701 15.3334 8.36854 15.3334 8.00035C15.3334 7.63216 15.0349 7.33368 14.6667 7.33368H8.66661V1.33366Z" fill="#292229"/>
</svg>
