<svg width="20" height="20" viewBox="0 0 20 20" fill="none" xmlns="http://www.w3.org/2000/svg">
<path fill-rule="evenodd" clip-rule="evenodd" d="M15.32 17.4901C15.5883 17.6725 15.9341 17.7181 16.2425 17.6061C16.5508 17.4933 16.7775 17.2405 16.8458 16.9341C17.5699 13.6669 19.3266 5.39727 19.9857 2.42527C20.0357 2.20127 19.9524 1.96847 19.7691 1.81887C19.5857 1.66927 19.3316 1.62607 19.1049 1.70687C15.6108 2.94847 4.85022 6.82447 0.451988 8.38687C0.172828 8.48607 -0.00883492 8.74368 0.000331537 9.02608C0.0103313 9.30928 0.20866 9.55488 0.494487 9.63728C2.46694 10.2037 5.05605 10.9917 5.05605 10.9917C5.05605 10.9917 6.26602 14.4997 6.89684 16.2837C6.97601 16.5077 7.1585 16.6837 7.39933 16.7445C7.63932 16.8045 7.89599 16.7413 8.07515 16.5789C9.08846 15.6605 10.6551 14.2405 10.6551 14.2405C10.6551 14.2405 13.6317 16.3357 15.32 17.4901ZM6.14519 10.5485L7.54433 14.9789L7.85515 12.1733C7.85515 12.1733 13.2609 7.49247 16.3425 4.82447C16.4325 4.74607 16.445 4.61487 16.37 4.52287C16.2958 4.43087 16.1591 4.40927 16.0566 4.47167C12.485 6.66127 6.14519 10.5485 6.14519 10.5485Z" fill="#FFF3CD"/>
</svg>
