<svg width="20" height="20" viewBox="0 0 20 20" fill="none" xmlns="http://www.w3.org/2000/svg">
<path d="M20 3.59091C19.2642 3.91758 18.4733 4.13758 17.6433 4.23675C18.4908 3.72925 19.1417 2.92508 19.4475 1.96675C18.655 2.43675 17.7767 2.77841 16.8417 2.96258C16.0942 2.16508 15.0267 1.66675 13.8467 1.66675C11.1975 1.66675 9.25083 4.13841 9.84917 6.70425C6.44 6.53341 3.41667 4.90008 1.3925 2.41758C0.3175 4.26175 0.835 6.67425 2.66167 7.89591C1.99 7.87425 1.35667 7.69008 0.804167 7.38258C0.759167 9.28342 2.12167 11.0617 4.095 11.4576C3.5175 11.6142 2.885 11.6509 2.24167 11.5276C2.76333 13.1576 4.27833 14.3434 6.075 14.3767C4.35 15.7292 2.17667 16.3334 0 16.0767C1.81583 17.2409 3.97333 17.9201 6.29 17.9201C13.9083 17.9201 18.2125 11.4859 17.9525 5.71508C18.7542 5.13591 19.45 4.41341 20 3.59091Z" fill="#FFF3CD"/>
</svg>
