<svg width="26" height="26" viewBox="0 0 26 26" fill="none" xmlns="http://www.w3.org/2000/svg">
<path d="M9.62991 17.333H5.41683C5.12951 17.333 4.85396 17.2189 4.6508 17.0157C4.44763 16.8126 4.3335 16.537 4.3335 16.2497V9.7497C4.3335 9.46238 4.44763 9.18683 4.6508 8.98366C4.85396 8.7805 5.12951 8.66636 5.41683 8.66636H9.62991L15.3651 3.97336C15.4444 3.90831 15.5406 3.86713 15.6425 3.85462C15.7443 3.84212 15.8476 3.8588 15.9404 3.90273C16.0331 3.94666 16.1115 4.01602 16.1663 4.10275C16.2212 4.18948 16.2502 4.29 16.2502 4.39261V21.6068C16.2502 21.7094 16.2212 21.8099 16.1663 21.8966C16.1115 21.9834 16.0331 22.0527 15.9404 22.0967C15.8476 22.1406 15.7443 22.1573 15.6425 22.1448C15.5406 22.1323 15.4444 22.0911 15.3651 22.026L9.631 17.333H9.62991ZM20.4351 17.9733L18.8946 16.4328C19.4205 16.0284 19.8464 15.5084 20.1392 14.9131C20.4321 14.3178 20.5841 13.6631 20.5835 12.9997C20.5835 11.4505 19.771 10.0909 18.5468 9.32503L20.1057 7.76611C20.9263 8.36974 21.5933 9.15804 22.0527 10.0672C22.5121 10.9764 22.751 11.981 22.7502 12.9997C22.7502 14.9952 21.851 16.7805 20.4351 17.9733Z" fill="#FFF3CD"/>
</svg>
