<svg width="138" height="21" viewBox="0 0 138 21" fill="none" xmlns="http://www.w3.org/2000/svg">
    <path d="M2.41534 10.5761V8.13534H3.86455C4.75441 8.13534 5.28833 8.55485 5.28833 9.35573C5.28833 10.1566 4.75441 10.5761 3.86455 10.5761H2.41534ZM2.41534 12.0507H3.86455C5.74597 12.0507 6.85195 10.9448 6.85195 9.34301C6.85195 7.74126 5.74597 6.63529 3.86455 6.63529H1.63989C1.16953 6.63529 0.864438 6.94038 0.864438 7.41074V14.25C0.864438 14.7839 1.20767 15.1144 1.63989 15.1144C2.07211 15.1144 2.41534 14.7839 2.41534 14.25V12.0507ZM9.86616 13.7033C9.01443 13.7033 8.50594 12.9406 8.50594 11.9872C8.50594 11.0338 9.01443 10.271 9.86616 10.271C10.7179 10.271 11.2264 11.0338 11.2264 11.9872C11.2264 12.9406 10.7179 13.7033 9.86616 13.7033ZM9.86616 15.1525C11.6713 15.1525 12.7391 13.7033 12.7391 11.9872C12.7391 10.271 11.6713 8.82181 9.86616 8.82181C8.06101 8.82181 6.99317 10.271 6.99317 11.9872C6.99317 13.7033 8.06101 15.1525 9.86616 15.1525ZM17.0971 11.4533C17.3513 12.3685 17.5674 13.0677 17.7836 13.7288L18.0378 14.4915C18.1649 14.8856 18.4065 15.1144 18.8005 15.1144C19.1565 15.1144 19.4107 14.8602 19.5379 14.4915L21.0379 10.2583C21.1015 10.0676 21.2032 9.82608 21.2032 9.58455C21.2032 9.19047 20.9616 8.85995 20.4913 8.85995C20.0082 8.85995 19.8175 9.20318 19.6904 9.57184L19.4234 10.36C19.22 10.9448 18.9785 11.7456 18.8005 12.483C18.5463 11.6567 18.3302 10.9066 18.1141 10.2837L17.8344 9.48285C17.6946 9.08877 17.4785 8.85995 17.0971 8.85995C16.7157 8.85995 16.4996 9.08877 16.3598 9.48285L16.0801 10.2837C15.864 10.9066 15.6479 11.6567 15.3936 12.483C15.2157 11.7456 14.9741 10.9448 14.7707 10.36L14.5038 9.57184C14.3767 9.20318 14.186 8.85995 13.7029 8.85995C13.2325 8.85995 12.991 9.19047 12.991 9.58455C12.991 9.82608 13.0927 10.0676 13.1563 10.2583L14.6563 14.4915C14.7834 14.8602 15.0377 15.1144 15.3936 15.1144C15.7877 15.1144 16.0293 14.8856 16.1564 14.4915L16.4106 13.7288C16.6267 13.0677 16.8428 12.3685 17.0971 11.4533ZM23.0328 11.3516C23.1472 10.6778 23.5285 10.1693 24.1769 10.1693C24.8252 10.1693 25.2066 10.6778 25.321 11.3516H23.0328ZM23.0073 12.5719H26.0964C26.5795 12.5719 26.8719 12.2796 26.8719 11.7965C26.8719 10.3981 25.982 8.82181 24.1769 8.82181C22.448 8.82181 21.4564 10.2583 21.4564 11.9745C21.4564 13.7033 22.4861 15.1525 24.2658 15.1525C24.965 15.1525 25.7278 14.9237 26.1346 14.5296C26.3125 14.3517 26.4269 14.1228 26.4269 13.8813C26.4269 13.5127 26.1854 13.233 25.804 13.233C25.6134 13.233 25.4354 13.2965 25.3083 13.3855C25.0794 13.5381 24.8506 13.7542 24.3167 13.7542C23.4904 13.7542 23.109 13.2584 23.0073 12.5719ZM29.3032 9.66082C29.2778 9.16504 28.9727 8.85995 28.5532 8.85995C28.1337 8.85995 27.8032 9.17775 27.8032 9.69896V14.2754C27.8032 14.7966 28.1337 15.1144 28.5532 15.1144C28.9727 15.1144 29.3032 14.7966 29.3032 14.2754V11.949C29.3032 10.7795 29.8371 10.36 30.4727 10.36C30.9939 10.36 31.3499 10.0803 31.3499 9.57184C31.3499 9.08877 31.0067 8.83452 30.5236 8.83452C29.9897 8.83452 29.5193 9.15233 29.3032 9.66082ZM33.1013 11.3516C33.2157 10.6778 33.5971 10.1693 34.2454 10.1693C34.8938 10.1693 35.2751 10.6778 35.3895 11.3516H33.1013ZM33.0759 12.5719H36.165C36.6481 12.5719 36.9404 12.2796 36.9404 11.7965C36.9404 10.3981 36.0506 8.82181 34.2454 8.82181C32.5165 8.82181 31.525 10.2583 31.525 11.9745C31.525 13.7033 32.5547 15.1525 34.3344 15.1525C35.0336 15.1525 35.7963 14.9237 36.2031 14.5296C36.3811 14.3517 36.4955 14.1228 36.4955 13.8813C36.4955 13.5127 36.254 13.233 35.8726 13.233C35.6819 13.233 35.5039 13.2965 35.3768 13.3855C35.148 13.5381 34.9192 13.7542 34.3853 13.7542C33.559 13.7542 33.1776 13.2584 33.0759 12.5719ZM40.3379 13.7033C39.5243 13.7033 39.0285 12.9787 39.0285 11.9872C39.0285 10.9956 39.5243 10.271 40.3379 10.271C41.1515 10.271 41.6346 11.021 41.6346 11.9872C41.6346 12.9533 41.1515 13.7033 40.3379 13.7033ZM41.6219 14.5042C41.6981 14.8729 41.9778 15.1144 42.3465 15.1144C42.766 15.1144 43.0965 14.7839 43.0965 14.2754V7.35989C43.0965 6.83868 42.766 6.52088 42.3465 6.52088C41.9269 6.52088 41.5964 6.83868 41.5964 7.35989V9.432C41.2913 9.03792 40.7193 8.82181 40.0964 8.82181C38.4946 8.82181 37.4903 10.1947 37.4903 11.9872C37.4903 13.7796 38.52 15.1525 40.0837 15.1525C40.7574 15.1525 41.3168 14.911 41.6219 14.5042ZM47.95 14.5042C48.2551 14.911 48.8144 15.1525 49.4882 15.1525C51.0518 15.1525 52.0815 13.7796 52.0815 11.9872C52.0815 10.1947 51.0772 8.82181 49.4755 8.82181C48.8526 8.82181 48.2805 9.03792 47.9754 9.432V7.35989C47.9754 6.83868 47.6449 6.52088 47.2254 6.52088C46.8059 6.52088 46.4754 6.83868 46.4754 7.35989V14.2754C46.4754 14.7839 46.8059 15.1144 47.2254 15.1144C47.5941 15.1144 47.8737 14.8729 47.95 14.5042ZM49.234 13.7033C48.4204 13.7033 47.9373 12.9533 47.9373 11.9872C47.9373 11.021 48.4204 10.271 49.234 10.271C50.0475 10.271 50.5433 10.9956 50.5433 11.9872C50.5433 12.9787 50.0475 13.7033 49.234 13.7033ZM54.8968 12.877C54.5409 11.5931 54.1086 10.36 53.74 9.49556C53.5874 9.15233 53.3967 8.85995 52.9518 8.85995C52.5577 8.85995 52.2526 9.10148 52.2526 9.57184C52.2526 9.74981 52.3035 9.94049 52.367 10.093L54.0705 14.339C53.7018 15.5721 52.9264 15.7755 52.4815 16.0933C52.2781 16.2331 52.1382 16.4238 52.1382 16.7035C52.1382 17.1102 52.4179 17.3772 52.901 17.3772C53.1679 17.3772 53.4349 17.3009 53.6637 17.1738C54.5154 16.7035 55.24 15.5339 55.7867 14.1737L57.4266 10.093C57.4901 9.94049 57.541 9.74981 57.541 9.57184C57.541 9.10148 57.2359 8.85995 56.8418 8.85995C56.3969 8.85995 56.2062 9.15233 56.0536 9.49556C55.685 10.36 55.2527 11.5931 54.8968 12.877Z" fill="#FFFFFF"/>
    <path d="M68.7171 1C67.9625 1.00375 67.216 1.15619 66.5203 1.44867C65.8245 1.74114 65.1932 2.16793 64.6623 2.70459C64.1314 3.24125 63.7114 3.87731 63.4262 4.57644C63.141 5.27557 62.9962 6.02407 63.0001 6.7792V8.68811H67.6452V5.92249C67.6451 5.79261 67.6706 5.66399 67.7203 5.54398C67.7699 5.42397 67.8427 5.31493 67.9345 5.22308C68.0262 5.13123 68.1352 5.0584 68.2551 5.0087C68.375 4.95901 68.5035 4.93344 68.6333 4.93347H68.8008C68.9306 4.93344 69.0591 4.95901 69.1791 5.0087C69.299 5.0584 69.408 5.13123 69.4997 5.22308C69.5915 5.31493 69.6643 5.42397 69.714 5.54398C69.7636 5.66399 69.7892 5.7926 69.7892 5.92249V13.3365C70.3992 13.3365 71.0032 13.2163 71.5668 12.9827C72.1304 12.7491 72.6425 12.4067 73.0738 11.975C73.5052 11.5434 73.8473 11.031 74.0807 10.467C74.3142 9.90303 74.4343 9.29855 74.4343 8.68811V6.7792C74.4376 5.24921 73.8355 3.7801 72.7597 2.69297C72.2318 2.1565 71.6025 1.73053 70.9084 1.43988C70.2144 1.14922 69.4694 0.999685 68.7171 1Z" fill="#FFFFFF"/>
    <path d="M68.801 17.0903H68.6336C68.5038 17.0903 68.3753 17.0648 68.2554 17.0151C68.1355 16.9654 68.0265 16.8925 67.9348 16.8007C67.843 16.7089 67.7702 16.5999 67.7206 16.4799C67.6709 16.3599 67.6454 16.2313 67.6454 16.1014V8.6875C67.0354 8.68745 66.4313 8.80763 65.8677 9.04121C65.3041 9.27479 64.7921 9.61718 64.3607 10.0488C63.9294 10.4805 63.5872 10.9929 63.3538 11.5569C63.1204 12.1209 63.0002 12.7254 63.0003 13.3358V15.2182C62.9926 15.9744 63.1347 16.7246 63.4186 17.4256C63.7024 18.1265 64.1223 18.7641 64.6539 19.3016C65.1856 19.8391 65.8184 20.2658 66.5159 20.557C67.2134 20.8482 67.9616 20.9981 68.7174 20.9981C69.4731 20.9981 70.2214 20.8482 70.9189 20.557C71.6163 20.2658 72.2492 19.8391 72.7808 19.3016C73.3125 18.7641 73.7324 18.1265 74.0162 17.4256C74.3001 16.7246 74.4422 15.9744 74.4345 15.2182V13.3358H69.7894V16.1014C69.7894 16.2313 69.7638 16.3599 69.7141 16.4799C69.6645 16.5999 69.5917 16.7089 69.4999 16.8007C69.4081 16.8926 69.2991 16.9654 69.1792 17.0151C69.0593 17.0648 68.9308 17.0903 68.801 17.0903Z" fill="#FFFFFF"/>
    <path d="M82.3741 6.86719H80.7461V15.132H85.5245V13.5738H82.3743L82.3741 6.86719Z" fill="#FFFFFF"/>
    <path d="M90.7395 9.92741C90.5099 9.64184 90.2158 9.41482 89.8815 9.265C89.5472 9.11518 89.1822 9.04682 88.8163 9.06552C88.4341 9.06251 88.0557 9.14161 87.7066 9.29747C87.3575 9.45333 87.0459 9.68233 86.7928 9.969C86.2495 10.5783 85.9492 11.3663 85.9492 12.1828C85.9492 12.9994 86.2495 13.7875 86.7928 14.3967C87.046 14.6833 87.3576 14.9122 87.7067 15.068C88.0558 15.2238 88.4341 15.3028 88.8163 15.2998C89.6423 15.2998 90.2834 15.0125 90.7395 14.4379V15.1346H92.2617V9.23127H90.7395V9.92741ZM90.2737 13.3811C90.1202 13.5349 89.9368 13.6556 89.7349 13.7358C89.533 13.8159 89.3168 13.8539 89.0997 13.8474C88.8834 13.8543 88.668 13.8165 88.467 13.7363C88.266 13.656 88.0836 13.5351 87.9315 13.3811C87.6352 13.0523 87.4713 12.6253 87.4713 12.1826C87.4713 11.7398 87.6352 11.3128 87.9315 10.984C88.0837 10.8302 88.266 10.7093 88.467 10.6291C88.6681 10.5489 88.8834 10.5111 89.0997 10.5179C89.3168 10.5115 89.5329 10.5495 89.7348 10.6297C89.9367 10.7098 90.1201 10.8304 90.2737 10.984C90.5733 11.3112 90.7395 11.7388 90.7395 12.1826C90.7395 12.6263 90.5733 13.054 90.2737 13.3811Z" fill="#FFFFFF"/>
    <path d="M96.1828 13.1983L94.6441 9.23047H92.9805L95.3985 14.9452C95.2973 15.2862 95.0983 15.59 94.8261 15.8189C94.5402 16.013 94.1971 16.1046 93.8525 16.0789V17.4959C94.5243 17.5581 95.1959 17.3755 95.744 16.9818C96.2502 16.5994 96.6569 15.9868 96.9639 15.144L99.1147 9.23086H97.4865L96.1828 13.1983Z" fill="#FFFFFF"/>
    <path d="M102.408 9.06435C101.993 9.04976 101.579 9.12144 101.193 9.27492C100.808 9.4284 100.458 9.66034 100.166 9.95602C99.6029 10.5619 99.2908 11.3593 99.293 12.1868C99.2951 13.0143 99.6114 13.8101 100.178 14.413C100.768 15.0032 101.55 15.2983 102.526 15.2985C103.658 15.2985 104.516 14.8774 105.098 14.0354L103.871 13.3267C103.715 13.5249 103.513 13.6821 103.283 13.785C103.053 13.8878 102.801 13.9331 102.549 13.9171C101.645 13.9171 101.09 13.5472 100.886 12.8074H105.334C105.372 12.6009 105.392 12.3913 105.393 12.1813C105.415 11.359 105.112 10.5612 104.549 9.96164C104.277 9.66818 103.945 9.4363 103.575 9.28156C103.206 9.12682 102.808 9.05278 102.408 9.06435ZM100.862 11.6266C100.93 11.2797 101.118 10.9679 101.393 10.7467C101.686 10.5301 102.044 10.4198 102.407 10.4339C102.74 10.4296 103.065 10.5332 103.334 10.7293C103.62 10.9496 103.812 11.2702 103.871 11.6264L100.862 11.6266Z" fill="#FFFFFF"/>
    <path d="M107.977 10.2428V9.22711H106.455V15.1307H107.977V12.3089C107.977 11.7422 108.16 11.3368 108.526 11.0927C108.892 10.8486 109.335 10.7477 109.771 10.8093V9.10955C109.388 9.10469 109.011 9.20253 108.679 9.39291C108.351 9.58328 108.102 9.88473 107.977 10.2428Z" fill="#FFFFFF"/>
    <path d="M117.192 8.14542V6.86719H111.779V8.4258H115.13L111.691 13.8304V15.1318H117.258V13.5736H113.754L117.192 8.14542Z" fill="#FFFFFF"/>
    <path d="M120.851 9.06436C120.436 9.04976 120.023 9.12144 119.637 9.27492C119.251 9.4284 118.901 9.66033 118.61 9.95603C118.046 10.5619 117.734 11.3593 117.736 12.1869C117.739 13.0144 118.055 13.8101 118.621 14.413C119.211 15.0032 119.994 15.2983 120.969 15.2985C122.102 15.2985 122.959 14.8774 123.541 14.0354L122.314 13.3267C122.158 13.5249 121.957 13.6821 121.726 13.7849C121.496 13.8878 121.245 13.9331 120.993 13.9171C120.088 13.9171 119.534 13.5472 119.329 12.8074H123.778C123.815 12.6008 123.835 12.3913 123.836 12.1813C123.859 11.359 123.556 10.5612 122.993 9.96164C122.72 9.66817 122.388 9.4363 122.019 9.28156C121.65 9.12682 121.252 9.05277 120.851 9.06436ZM119.306 11.6266C119.373 11.2797 119.561 10.9679 119.837 10.7467C120.13 10.53 120.487 10.4197 120.851 10.4339C121.184 10.4295 121.509 10.5331 121.778 10.7293C122.064 10.9496 122.255 11.2702 122.314 11.6264L119.306 11.6266Z" fill="#FFFFFF"/>
    <path d="M126.421 10.2467V9.23101H124.898V15.1346H126.421V12.3128C126.421 11.7461 126.603 11.3407 126.969 11.0966C127.335 10.8525 127.778 10.7516 128.214 10.8132V9.11345C127.831 9.10863 127.454 9.20648 127.123 9.39681C126.795 9.58715 126.546 9.88862 126.421 10.2467Z" fill="#FFFFFF"/>
    <path d="M131.683 9.06329C130.969 9.07118 130.28 9.32617 129.732 9.78497C129.185 10.2438 128.813 10.8781 128.679 11.5802C128.546 12.2823 128.66 13.009 129.001 13.6368C129.342 14.2646 129.89 14.7548 130.552 15.0243C131.213 15.2937 131.948 15.3257 132.63 15.1149C133.312 14.904 133.901 14.4633 134.295 13.8676C134.69 13.2719 134.866 12.558 134.795 11.8469C134.723 11.1358 134.407 10.4715 133.902 9.96678C133.613 9.67219 133.268 9.43996 132.886 9.28455C132.505 9.12914 132.095 9.05383 131.683 9.06329ZM132.828 13.3493C132.679 13.5001 132.5 13.6187 132.303 13.6978C132.106 13.7769 131.896 13.8148 131.683 13.8092C131.472 13.8152 131.262 13.7775 131.066 13.6983C130.87 13.6192 130.692 13.5004 130.544 13.3493C130.252 13.0302 130.09 12.6131 130.09 12.1803C130.09 11.7476 130.252 11.3305 130.544 11.0114C130.692 10.8604 130.87 10.7416 131.066 10.6624C131.262 10.5833 131.472 10.5455 131.683 10.5515C131.896 10.5459 132.106 10.5839 132.303 10.663C132.5 10.7421 132.679 10.8606 132.828 11.0114C133.124 11.3287 133.288 11.7464 133.288 12.1803C133.288 12.6142 133.124 13.032 132.828 13.3493Z" fill="#FFFFFF"/>
    <path d="M137.999 13.3125H136.146V15.1308H137.999V13.3125Z" fill="#FFFFFF"/>
</svg>
