<?xml version="1.0" encoding="utf-8"?>
<!-- Generator: Adobe Illustrator 26.2.1, SVG Export Plug-In . SVG Version: 6.00 Build 0)  -->
<svg version="1.1" id="圖層_1" xmlns="http://www.w3.org/2000/svg" xmlns:xlink="http://www.w3.org/1999/xlink" x="0px" y="0px"
	 viewBox="0 0 102 98" style="enable-background:new 0 0 102 98;" xml:space="preserve">
<style type="text/css">
	.st0{fill:#AAA69F;}
	.st1{fill:#E9E9E9;}
</style>
<path class="st0" d="M77.5,35.2c7.5-7.5,13.9-1.1,21.4-8.6c3-3,3-7.8,0-10.7l-19.3,4.3L25.4,74.5L14.7,93.8c4.7,4.7,12.4,4.7,17.2,0
	c7.5-7.5,1.1-13.9,8.6-21.4L77.5,35.2z"/>
<path class="st1" d="M27.6,89.5c2.2-2.2,2.3-3.7,2.5-6.9c0.3-3.9,0.7-9.2,6-14.5l37-37c5.3-5.3,10.7-5.7,14.5-6
	c3.1-0.2,4.7-0.4,6.9-2.5c3-3,4.9-5.8,4.3-6.4c-2.3-2.3-5.6-2.8-8.3-1.6C91,10.8,89.9,7,87.1,4.2c-4.7-4.7-12.4-4.7-17.1,0
	c-7.5,7.5-1.1,13.9-8.6,21.4l-37,37c-7.5,7.5-13.9,1.1-21.4,8.6c-3,3-3,7.8,0,10.7c2.3,2.3,5.6,2.8,8.3,1.6
	c-0.5,3.6,0.7,7.4,3.4,10.2C17.1,96.1,22.8,94.2,27.6,89.5z"/>
</svg>
