<?xml version="1.0" encoding="utf-8"?>
<!-- Generator: Adobe Illustrator 26.2.1, SVG Export Plug-In . SVG Version: 6.00 Build 0)  -->
<svg version="1.1" id="圖層_1" xmlns="http://www.w3.org/2000/svg" xmlns:xlink="http://www.w3.org/1999/xlink" x="0px" y="0px"
	 viewBox="0 0 84.3 86" style="enable-background:new 0 0 84.3 86;" xml:space="preserve">
<style type="text/css">
	.st0{fill:#FFDD63;}
	.st1{fill:#FBD75B;}
	.st2{fill:#EBC028;}
</style>
<path class="st0" d="M7.2,29.9L53,2.2c2.3-1.4,5-2.2,7.8-1.9c13.1,1.6,30.7,11.2,20.5,40.5c-9,25.8-22.9,37.9-32.4,42.4
	c-3.9,1.9-8.3,0.5-11.6-2.2L5.4,54.2C-2.5,47.6-1.6,35.2,7.2,29.9z"/>
<path class="st1" d="M42.8,74.6C33,77,25,62.2,21.8,53.7c-0.2-0.5-0.3-1.1-0.2-1.7c1.5-10.4,30.8-8.7,31.8-17.8
	c1-9.3,22.2-18.6,21.2-7.2S55.3,71.5,42.8,74.6z"/>
<path class="st2" d="M50.2,73.4c-5.3,5.3-8.5,2.2-9.5,0c-1.1-2.6,1.5-3.7,4.7-5.7c4.8-2.8,19.9-22.7,19.9-16.1
	C65.4,58.2,56.9,66.7,50.2,73.4z"/>
<path class="st2" d="M50.9,13.3c-2.3-3.8,3.5-6.6,6.6-7.6c2.5-0.9,6.6,3.8,4.7,7.6C60.4,17.1,53.8,18,50.9,13.3z"/>
<path class="st2" d="M42.5,15c-0.7-1.3,1.1-2.3,2-2.6c0.8-0.3,2,1.3,1.5,2.6C45.5,16.3,43.4,16.6,42.5,15z"/>
<path class="st2" d="M34.9,68.6c-0.3-0.7,0.5-1.2,1-1.3c0.4-0.2,1,0.7,0.7,1.3C36.3,69.3,35.3,69.5,34.9,68.6z"/>
<path class="st2" d="M34.9,62.9c-0.3-0.7,0.5-1.2,1-1.3c0.4-0.2,1,0.7,0.7,1.3C36.3,63.6,35.3,63.8,34.9,62.9z"/>
<path class="st2" d="M69,47.8c-0.3-0.7,0.5-1.2,1-1.3c0.4-0.2,1,0.7,0.7,1.3C70.5,48.4,69.4,48.6,69,47.8z"/>
<path class="st2" d="M14,36.4c-0.3-0.7,0.5-1.2,1-1.3c0.4-0.2,1,0.7,0.7,1.3C15.5,37.1,14.5,37.2,14,36.4z"/>
<path class="st2" d="M67.1,9.9c-0.3-0.7,0.5-1.2,1-1.3c0.4-0.2,1,0.7,0.7,1.3C68.6,10.5,67.5,10.7,67.1,9.9z"/>
<path class="st2" d="M6.6,41.5c-1-1.3,1.6-2.3,3-2.6c1.1-0.3,3,1.3,2.2,2.6C11,42.9,7.9,43.2,6.6,41.5z"/>
</svg>
