<?xml version="1.0" encoding="utf-8"?>
<!-- Generator: Adobe Illustrator 26.2.1, SVG Export Plug-In . SVG Version: 6.00 Build 0)  -->
<svg version="1.1" id="圖層_1" xmlns="http://www.w3.org/2000/svg" xmlns:xlink="http://www.w3.org/1999/xlink" x="0px" y="0px"
	 viewBox="0 0 98 98" style="enable-background:new 0 0 98 98;" xml:space="preserve">
<style type="text/css">
	.st0{fill:#BFBFBF;}
	.st1{fill:#ACACAC;}
	.st2{fill:#4F453E;}
	.st3{fill:#38312C;}
</style>
<path class="st0" d="M35.3,49.9l33.2-36.8c0,0,14.1-17.4,27.8-11.3c1,0.5,1.5,1.7,1.1,2.8c-2.3,5.7-11,24.9-37.2,56
	c-0.7,0.8-1.8,1-2.7,0.5L46.8,55c-0.7-0.4-1.7-0.3-2.2,0.4L43.1,57L35.3,49.9z"/>
<path class="st1" d="M42.6,56.5l0.6,0.3L43.1,57L42.6,56.5z"/>
<path class="st1" d="M60.3,60.6c-0.7,0.8-1.8,1-2.7,0.5L55.6,60C82.7,27.6,92,7.6,94.5,1.2c0.6,0.2,1.2,0.4,1.8,0.7
	c1,0.5,1.5,1.7,1.1,2.8C95.2,10.4,86.5,29.5,60.3,60.6z"/>
<path class="st2" d="M35.4,50l-7.8,8.6l7,6.4l2.2-1.5c1.7-1.2,3.8-1.3,5.6-0.4c0.9,0.5,2.1,0.3,2.8-0.5l0.9-1
	c0.5-0.5,0.4-1.4-0.1-1.9L35.4,50z"/>
<path class="st3" d="M46,59.7c0.5,0.5,0.6,1.3,0.1,1.9l-0.9,1c-0.7,0.8-1.8,1-2.8,0.5c-1.8-0.9-4-0.8-5.6,0.4l-2.2,1.5l-2.3-2.1
	c0,0,1.3-1.4,1.4-1.5c0.6-0.7,1.4-1.1,2.2-1.4c1.3-0.5,2.9-0.6,4.2-0.2c1.2,0.3,2.8,0.6,3.9-0.2c0.1-0.1,0.9-0.8,0.7-0.9L46,59.7z"
	/>
<path class="st2" d="M27.6,58.6L2,86.9c-2.4,2.7-2.2,6.8,0.5,9.2c3.1,2.8,7.9,2,10-1.6l0.7-1.2c2.1-3.7,4.7-7,7.8-9.9l2.1-1.9
	c3.2-2.9,5.9-6.3,8-10.1l3.6-6.4L27.6,58.6z"/>
<path class="st3" d="M11.6,95.6c-2.3,2.6-6.4,2.9-9.1,0.5c-0.4-0.4-0.7-0.8-1-1.2c2.6,1.4,5.9,0.8,7.9-1.4c0.3-0.3,0.6-0.7,0.8-1.2
	l0.7-1.2c2.1-3.7,4.7-7,7.8-9.9l2.1-1.9c3.2-2.9,5.9-6.3,8-10.1l3.6-6.4l2.3,2.1l-3.6,6.4c-2.1,3.8-4.8,7.2-8,10.1L21,83.4
	c-3.1,2.9-5.8,6.2-7.8,9.9l-0.7,1.2C12.2,94.9,12,95.3,11.6,95.6z"/>
</svg>
