<svg width="43" height="42" viewBox="0 0 43 42" fill="none" xmlns="http://www.w3.org/2000/svg">
<path fill-rule="evenodd" clip-rule="evenodd" d="M15.1608 38.0882C14.8645 33.9268 11.8277 33.1342 10.3463 33.258C0.347237 36.9738 -0.763985 30.6565 0.347039 29.5422C1.45806 28.4279 1.8285 21.7397 1.45816 16.1664C1.08782 10.5931 7.75396 -1.66802 24.4193 0.189734C40.4722 1.97921 40.3749 16.8689 40.3461 21.2817C40.345 21.4497 40.344 21.6033 40.344 21.7397C40.344 24.2787 41.2087 25.9503 41.9927 27.4657C42.356 28.1678 42.7019 28.8364 42.9364 29.5422C43.4495 31.0865 40.7638 32.2743 38.3262 33.3524C37.2449 33.8307 36.2124 34.2873 35.5296 34.7439C35.188 34.9723 34.8553 35.1831 34.5353 35.3859C32.7734 36.5021 31.3989 37.3731 31.0855 39.5741C30.9332 40.6433 29.7796 41.2101 28.3707 41.507L28.1228 37.5266H27.3821L27.6381 41.6355C26.6359 41.7798 25.574 41.8174 24.6869 41.8214L24.4194 37.5266H23.6787L23.946 41.8179C23.7673 41.8156 23.602 41.8127 23.4533 41.8101C23.2471 41.8065 23.0726 41.8034 22.938 41.8034C22.7236 41.8034 22.4161 41.8345 22.0459 41.872C21.836 41.8933 21.6059 41.9166 21.3611 41.9374L21.0863 37.5266H20.3456L20.6234 41.9864C18.3566 42.0877 15.4181 41.702 15.1608 38.0882ZM37.011 15.423C36.4184 18.6926 29.851 20.5008 26.6414 20.9962C27.3821 23.5971 29.9004 28.2043 34.0482 25.8264C38.1961 23.4485 37.7517 17.9 37.011 15.423ZM5.90231 17.6523C10.223 19.1385 19.1607 21.888 20.3456 20.9962C19.1111 23.7209 15.9015 28.8731 12.9388 27.6841C9.23538 26.1979 5.90231 19.8816 5.90231 17.6523ZM23.6785 28.7988L21.8268 33.2574C20.3455 33.0097 17.679 31.5483 18.8641 27.6841C20.0492 23.82 22.5675 22.3586 23.6785 22.1109C25.2834 23.7209 28.345 27.7585 27.7524 31.0281C27.1599 34.2977 25.2835 34.3721 24.4194 34.0005L23.6785 28.7988Z" fill="#F3F3F3"/>
</svg>
